<?xml version="1.0" encoding="UTF-8" standalone="no" ?>
<!DOCTYPE svg PUBLIC "-//W3C//DTD SVG 1.1//EN" "http://www.w3.org/Graphics/SVG/1.1/DTD/svg11.dtd">
<svg xmlns="http://www.w3.org/2000/svg" xmlns:xlink="http://www.w3.org/1999/xlink" version="1.1" width="560" height="540" viewBox="100 100 880 880" xml:space="preserve"> 
<desc>Created with Fabric.js 4.2.0</desc>
<defs>
</defs>
<rect x="0" y="0" width="100%" height="100%" fill="transparent"></rect>
<g transform="matrix(1 0 0 1 540 540)" id="6381a8e3-840a-4baf-8691-4f51d453f6a6"  >
<rect style="stroke: none; stroke-width: 1; stroke-dasharray: none; stroke-linecap: butt; stroke-dashoffset: 0; stroke-linejoin: miter; stroke-miterlimit: 4; fill: rgb(0,0,0); fill-rule: nonzero; opacity: 1;" vector-effect="non-scaling-stroke"  x="-540" y="-540" rx="0" ry="0" width="1080" height="1080" />
</g>
<g transform="matrix(1 0 0 1 540 540)" id="63a0eae5-cf57-4c2f-bf3e-2a158348ba88"  >
</g>
<g transform="matrix(7.63 0 0 7.63 540 540)"  >
<g style="" vector-effect="non-scaling-stroke"   >
		<g transform="matrix(1 0 0 1 23.8 19)"  >
<path style="stroke: none; stroke-width: 1; stroke-dasharray: none; stroke-linecap: butt; stroke-dashoffset: 0; stroke-linejoin: miter; stroke-miterlimit: 4; fill: rgb(255,255,255); fill-rule: nonzero; opacity: 1;" vector-effect="non-scaling-stroke"  transform=" translate(-56, -51)" d="M 52 48 L 52 54 L 60 54 L 60 48 L 52 48 z M 57 52 L 55 52 L 55 50 L 57 50 L 57 52 z" stroke-linecap="round" />
</g>
		<g transform="matrix(1 0 0 1 1.1 13)"  >
<path style="stroke: none; stroke-width: 1; stroke-dasharray: none; stroke-linecap: butt; stroke-dashoffset: 0; stroke-linejoin: miter; stroke-miterlimit: 4; fill: rgb(255,255,255); fill-rule: nonzero; opacity: 1;" vector-effect="non-scaling-stroke"  transform=" translate(-33.3, -45)" d="M 52 44 C 52 43.3 52.2 42.6 52.6 42 L 30 42 C 29.5 42 29.1 41.6 29 41.1 C 27.6 38.5 24.9 37 22 37 C 17.6 37 14 40.6 14 45 C 14 49.4 17.6 53 22 53 C 25.1 53 27.8 51.3 29.2 48.6 C 29.4 48.300000000000004 29.7 48 30.099999999999998 48 L 50 48 L 50 47 C 50 46.4 50.4 46 51 46 L 52 46 L 52 44 z M 25 42 L 22 42 C 21.4 42 21 42.4 21 43 C 21 43.6 21.4 44 22 44 C 23.7 44 25 45.3 25 47 C 25 48.3 24.2 49.4 23 49.8 L 23 51 L 21 51 L 21 50 L 19 50 L 19 48 L 22 48 C 22.6 48 23 47.6 23 47 C 23 46.4 22.6 46 22 46 C 20.3 46 19 44.7 19 43 C 19 41.7 19.8 40.6 21 40.2 L 21 39 L 23 39 L 23 40 L 25 40 L 25 42 z M 32 46 L 30 46 L 30 44 L 32 44 L 32 46 z M 37 46 L 34 46 L 34 44 L 37 44 L 37 46 z M 48 46 L 39 46 L 39 44 L 48 44 L 48 46 z" stroke-linecap="round" />
</g>
		<g transform="matrix(1 0 0 1 10.8 0)"  >
<path style="stroke: none; stroke-width: 1; stroke-dasharray: none; stroke-linecap: butt; stroke-dashoffset: 0; stroke-linejoin: miter; stroke-miterlimit: 4; fill: rgb(255,255,255); fill-rule: nonzero; opacity: 1;" vector-effect="non-scaling-stroke"  transform=" translate(-43, -32)" d="M 38 35 C 38 35.6 38.4 36 39 36 L 48 36 L 48 28 L 38 28 L 38 35 z M 40.2 30.7 L 41.6 29.3 L 43 30.7 L 44.4 29.3 L 45.8 30.7 L 44.4 32.1 L 45.8 33.5 L 44.4 34.9 L 43 33.5 L 41.6 34.9 L 40.2 33.5 L 41.6 32.1 L 40.2 30.7 z" stroke-linecap="round" />
</g>
		<g transform="matrix(1 0 0 1 10.8 -10)"  >
<path style="stroke: none; stroke-width: 1; stroke-dasharray: none; stroke-linecap: butt; stroke-dashoffset: 0; stroke-linejoin: miter; stroke-miterlimit: 4; fill: rgb(255,255,255); fill-rule: nonzero; opacity: 1;" vector-effect="non-scaling-stroke"  transform=" translate(-43, -22)" d="M 38 26 L 48 26 L 48 18 L 38 18 L 38 26 z M 40 21 L 42 21 L 42 19 L 44 19 L 44 21 L 46 21 L 46 23 L 44 23 L 44 25 L 42 25 L 42 23 L 40 23 L 40 21 z" stroke-linecap="round" />
</g>
		<g transform="matrix(1 0 0 1 22.8 0)"  >
<path style="stroke: none; stroke-width: 1; stroke-dasharray: none; stroke-linecap: butt; stroke-dashoffset: 0; stroke-linejoin: miter; stroke-miterlimit: 4; fill: rgb(255,255,255); fill-rule: nonzero; opacity: 1;" vector-effect="non-scaling-stroke"  transform=" translate(-55, -32)" d="M 50 36 L 59 36 C 59.6 36 60 35.6 60 35 L 60 28 L 50 28 L 50 36 z M 56 34.5 L 54 34.5 L 54 33.5 L 56 33.5 L 56 34.5 z M 54 29.5 L 56 29.5 L 56 30.5 L 54 30.5 L 54 29.5 z M 52 31 L 58 31 L 58 33 L 52 33 L 52 31 z" stroke-linecap="round" />
</g>
		<g transform="matrix(1 0 0 1 23.8 12)"  >
<path style="stroke: none; stroke-width: 1; stroke-dasharray: none; stroke-linecap: butt; stroke-dashoffset: 0; stroke-linejoin: miter; stroke-miterlimit: 4; fill: rgb(255,255,255); fill-rule: nonzero; opacity: 1;" vector-effect="non-scaling-stroke"  transform=" translate(-56, -44)" d="M 58 44 C 58 42.9 57.1 42 56 42 C 54.9 42 54 42.9 54 44 L 54 46 L 58 46 L 58 44 z" stroke-linecap="round" />
</g>
		<g transform="matrix(1 0 0 1 -4.95 -17.65)"  >
<polygon style="stroke: none; stroke-width: 1; stroke-dasharray: none; stroke-linecap: butt; stroke-dashoffset: 0; stroke-linejoin: miter; stroke-miterlimit: 4; fill: rgb(255,255,255); fill-rule: nonzero; opacity: 1;" vector-effect="non-scaling-stroke"  points="-1.95,6.65 3.85,-6.65 -0.25,-5.15 -3.85,6.65 " />
</g>
		<g transform="matrix(1 0 0 1 -11.8 -17.95)"  >
<path style="stroke: none; stroke-width: 1; stroke-dasharray: none; stroke-linecap: butt; stroke-dashoffset: 0; stroke-linejoin: miter; stroke-miterlimit: 4; fill: rgb(255,255,255); fill-rule: nonzero; opacity: 1;" vector-effect="non-scaling-stroke"  transform=" translate(-20.4, -14.05)" d="M 21.3 21 L 25.4 7.800000000000001 L 20.4 9.9 C 20.099999999999998 10 19.7 10 19.5 9.8 L 15.4 7.1000000000000005 L 17.8 21 L 21.3 21 z" stroke-linecap="round" />
</g>
		<g transform="matrix(1 0 0 1 -10.2 8.45)"  >
<path style="stroke: none; stroke-width: 1; stroke-dasharray: none; stroke-linecap: butt; stroke-dashoffset: 0; stroke-linejoin: miter; stroke-miterlimit: 4; fill: rgb(255,255,255); fill-rule: nonzero; opacity: 1;" vector-effect="non-scaling-stroke"  transform=" translate(-22, -40.45)" d="M 22 55 C 16.5 55 12 50.5 12 45 C 12 39.5 16.5 35 22 35 C 25.6 35 28.9 36.9 30.7 40 L 35.5 40 L 25.5 23 L 24.3 23 L 26 30.8 L 24 31.2 L 22.2 23 L 19.7 23 L 17.3 31.1 C 17.2 31.3 17.3 31.5 17.5 31.6 C 17.7 31.700000000000003 17.9 31.700000000000003 18 31.5 L 20.3 29.2 L 21.7 30.599999999999998 L 19.4 33 C 18.9 33.5 18.299999999999997 33.7 17.7 33.7 C 17.3 33.7 17 33.6 16.599999999999998 33.400000000000006 C 15.499999999999998 32.900000000000006 14.999999999999998 31.700000000000006 15.399999999999999 30.500000000000007 L 17.7 22.900000000000006 L 16.7 22.900000000000006 L 5.3 45.4 C 4.7 46.699999999999996 4.3999999999999995 48 4.3999999999999995 49.199999999999996 C 4.3999999999999995 49.9 4.6 50.599999999999994 4.8 51.199999999999996 C 5.5 53.4 7.199999999999999 55.3 9.399999999999999 56.199999999999996 L 8.7 58 L 35.4 58 L 34.699999999999996 56.3 C 36.9 55.4 38.49999999999999 53.5 39.3 51.3 C 39.4 50.9 39.5 50.4 39.599999999999994 50 L 30.799999999999994 50 C 28.9 53.1 25.6 55 22 55 z" stroke-linecap="round" />
</g>
		<g transform="matrix(1 0 0 1 -19.15 -18.15)"  >
<polygon style="stroke: none; stroke-width: 1; stroke-dasharray: none; stroke-linecap: butt; stroke-dashoffset: 0; stroke-linejoin: miter; stroke-miterlimit: 4; fill: rgb(255,255,255); fill-rule: nonzero; opacity: 1;" vector-effect="non-scaling-stroke"  points="0.75,-4.35 -2.35,-4.65 2.35,4.65 " />
</g>
		<g transform="matrix(1 0 0 1 22.8 -10)"  >
<path style="stroke: none; stroke-width: 1; stroke-dasharray: none; stroke-linecap: butt; stroke-dashoffset: 0; stroke-linejoin: miter; stroke-miterlimit: 4; fill: rgb(255,255,255); fill-rule: nonzero; opacity: 1;" vector-effect="non-scaling-stroke"  transform=" translate(-55, -22)" d="M 50 26 L 60 26 L 60 18 L 50 18 L 50 26 z M 52 21 L 58 21 L 58 23 L 52 23 L 52 21 z" stroke-linecap="round" />
</g>
		<g transform="matrix(1 0 0 1 16.8 -21)"  >
<path style="stroke: none; stroke-width: 1; stroke-dasharray: none; stroke-linecap: butt; stroke-dashoffset: 0; stroke-linejoin: miter; stroke-miterlimit: 4; fill: rgb(255,255,255); fill-rule: nonzero; opacity: 1;" vector-effect="non-scaling-stroke"  transform=" translate(-49, -11)" d="M 59 6 L 39 6 C 38.4 6 38 6.4 38 7 L 38 16 L 60 16 L 60 7 C 60 6.4 59.6 6 59 6 z M 58 13 C 58 13.6 57.6 14 57 14 L 41 14 C 40.4 14 40 13.6 40 13 L 40 9 C 40 8.4 40.4 8 41 8 L 57 8 C 57.6 8 58 8.4 58 9 L 58 13 z" stroke-linecap="round" />
</g>
		<g transform="matrix(1 0 0 1 16.8 -21)"  >
<rect style="stroke: none; stroke-width: 1; stroke-dasharray: none; stroke-linecap: butt; stroke-dashoffset: 0; stroke-linejoin: miter; stroke-miterlimit: 4; fill: rgb(255,255,255); fill-rule: nonzero; opacity: 1;" vector-effect="non-scaling-stroke"  x="-7" y="-1" rx="0" ry="0" width="14" height="2" />
</g>
</g>
</g>
</svg>